<?xml version="1.0" standalone="no"?>
<!DOCTYPE svg PUBLIC "-//W3C//DTD SVG 20010904//EN"
 "http://www.w3.org/TR/2001/REC-SVG-20010904/DTD/svg10.dtd">
<svg version="1.0" xmlns="http://www.w3.org/2000/svg"
 width="512.000000pt" height="512.000000pt" viewBox="0 0 512.000000 512.000000"
 preserveAspectRatio="xMidYMid meet">

<g transform="translate(0.000000,512.000000) scale(0.100000,-0.100000)"
fill="#000000" stroke="none">
<path d="M2285 5105 c-511 -59 -992 -265 -1375 -591 -323 -275 -569 -615 -726
-1006 -351 -874 -187 -1881 422 -2598 222 -261 489 -473 786 -626 737 -377
1599 -377 2336 0 473 243 865 635 1108 1108 351 686 377 1491 70 2189 -85 192
-215 410 -344 574 -71 90 -317 336 -407 407 -360 283 -776 462 -1235 533 -146
22 -483 28 -635 10z m395 -1427 c162 -49 296 -187 357 -372 24 -71 27 -97 27
-206 0 -144 -13 -200 -76 -323 -39 -75 -104 -153 -161 -193 l-27 -19 167 -80
c332 -157 548 -266 568 -286 19 -19 20 -35 23 -352 l3 -333 -23 -34 c-13 -19
-35 -40 -48 -47 -20 -10 -227 -13 -933 -13 -1020 0 -962 -4 -997 72 -18 40
-20 67 -20 342 0 283 1 302 21 342 23 49 -4 34 394 216 132 61 266 124 298
140 l58 29 -50 39 c-47 38 -122 132 -154 195 -64 127 -84 312 -48 454 26 105
57 173 110 245 44 59 121 126 180 155 93 46 232 58 331 29z m-853 -214 c27 -9
59 -24 73 -34 l24 -18 -22 -74 c-43 -148 -46 -319 -7 -463 8 -33 36 -100 61
-150 l44 -90 -39 -35 c-24 -22 -112 -69 -237 -125 -224 -102 -284 -146 -325
-237 -23 -51 -24 -63 -27 -325 l-3 -273 -200 0 -201 0 -29 29 -29 29 0 277 c0
273 0 276 22 298 13 12 149 80 303 151 154 71 282 130 283 131 2 2 -25 32 -60
67 -103 101 -148 214 -148 373 0 132 29 224 101 322 100 135 268 195 416 147z
m1684 -4 c182 -57 299 -239 299 -465 0 -161 -49 -285 -150 -379 l-57 -53 289
-138 c236 -113 292 -143 304 -166 11 -22 14 -82 14 -294 l0 -267 -29 -29 -29
-29 -206 0 -205 0 -3 273 c-3 262 -4 274 -27 325 -41 90 -102 135 -322 237
-131 60 -208 102 -236 128 l-41 38 43 92 c56 116 74 193 81 332 6 106 -1 159
-43 331 -4 17 5 25 54 46 32 14 65 28 73 31 34 12 132 6 191 -13z"/>
</g>
</svg>
